PathFileType	4	(X/Y/Z)	/Users/itak/Documents/Research/Walk-IL/dataset/trc/00195_00008.trc
DataRate	CameraRate	NumFrames	NumMarkers	Units	OrigDataRate	OrigDataStartFrame	OrigNumFrames
100.000000	100.000000	4	53	mm	100.000000	195	782
Frame#	Time	RPSI			LPSI			L3			STRN			T10			C7			CLAV			RBAK			LBAK			LSHO			LUPA			LAEL			LAOL			LWTS			LWPS			LFRA			LIFD			LHPS			LHTS			RSHO			RUPA			RAEL			RAOL			RWTS			RWPS			RFRA			RIFD			RHTS			RHPS			RBHD			LFHD			RFHD			LBHD			LHIP			RHIP			RASI			LASI			LKNE			LTHI			LANK			LTIP			LTOE			LMT1			LMT5			LHEE			RKNE			RTHI			RANK			RTIP			RTOE			RMT1			RMT5			RHEE			
		X1	Y1	Z1	X2	Y2	Z2	X3	Y3	Z3	X4	Y4	Z4	X5	Y5	Z5	X6	Y6	Z6	X7	Y7	Z7	X8	Y8	Z8	X9	Y9	Z9	X10	Y10	Z10	X11	Y11	Z11	X12	Y12	Z12	X13	Y13	Z13	X14	Y14	Z14	X15	Y15	Z15	X16	Y16	Z16	X17	Y17	Z17	X18	Y18	Z18	X19	Y19	Z19	X20	Y20	Z20	X21	Y21	Z21	X22	Y22	Z22	X23	Y23	Z23	X24	Y24	Z24	X25	Y25	Z25	X26	Y26	Z26	X27	Y27	Z27	X28	Y28	Z28	X29	Y29	Z29	X30	Y30	Z30	X31	Y31	Z31	X32	Y32	Z32	X33	Y33	Z33	X34	Y34	Z34	X35	Y35	Z35	X36	Y36	Z36	X37	Y37	Z37	X38	Y38	Z38	X39	Y39	Z39	X40	Y40	Z40	X41	Y41	Z41	X42	Y42	Z42	X43	Y43	Z43	X44	Y44	Z44	X45	Y45	Z45	X46	Y46	Z46	X47	Y47	Z47	X48	Y48	Z48	X49	Y49	Z49	X50	Y50	Z50	X51	Y51	Z51	X52	Y52	Z52	X53	Y53	Z53	

196	1.95	-517.6829833984375	1028.28515625	494.8164367675781	-627.8421020507812	1036.64892578125	547.2897338867188	-564.091064453125	1065.163818359375	519.6414184570312	-685.7029418945312	1294.506958007812	302.5978698730469	-535.8012084960938	1223.438110351562	559.3511962890625	-568.7568969726562	1495.39013671875	517.834716796875	-676.9481811523438	1406.7373046875	337.9928588867188	-447.1952209472656	1317.868896484375	513.1500854492188	-650.1671752929688	1473.86962890625	575.91845703125	-756.738525390625	1467.263549804688	554.6864624023438	-793.690185546875	1338.010498046875	632.5930786132812	-795.8317260742188	1123.500366210938	652.5682983398438	-709.23193359375	1111.240844726562	633.0789794921875	-831.5623779296875	872.5455932617188	593.629638671875	-800.626220703125	872.6415405273438	683.0535888671875	-805.8103637695312	1014.621032714844	669.9854125976562	-792.7885131835938	688.6611328125	606.5253295898438	-801.2578125	800.0997314453125	680.1300048828125	-838.9017944335938	792.0108032226562	618.0818481445312	-449.1165161132812	1478.000854492188	368.4325561523438	-380.8699035644531	1411.92626953125	348.6917419433594	-331.2559814453125	1122.542358398438	335.3349914550781	-415.3702392578125	1114.962890625	384.3617858886719	-413.8262939453125	897.38330078125	214.8278503417969	-337.8412170410156	880.08447265625	260.4602661132812	-327.4513854980469	1050.9677734375	302.8402404785156	-443.2840881347656	709.7091674804688	215.6490631103516	-419.5325927734375	803.0446166992188	187.8513793945312	-353.6922607421875	796.9768676757812	236.8613739013672	-524.3369140625	1646.282348632812	445.8543701171875	-702.144287109375	1725.046020507812	345.4485168457031	-584.526611328125	1707.503173828125	293.1189575195312	-643.9727172851562	1670.82568359375	508.7940673828125	-789.1967163085938	996.8116455078125	498.6942443847656	-472.63427734375	976.595703125	301.2278137207031	-553.181884765625	1018.777709960938	252.3367919921875	-781.7303466796875	1035.590209960938	363.6871948242188	-850.6460571289062	513.6837768554688	325.1433410644531	-853.548583984375	652.672119140625	379.1276550292969	-869.9091796875	29.3465518951416	370.7888793945312	-873.5510864257812	280.8014221191406	342.4749450683594	-894.5474243164062	58.15061950683594	157.6614685058594	-838.1633911132812	54.67062377929688	192.1595458984375	-931.1838989257812	27.24556732177734	274.37890625	-790.873046875	37.10396575927734	404.7304992675781	-498.6382446289062	472.1363525390625	335.2463989257812	-494.6675415039062	742.8096313476562	271.8555297851562	-367.0832824707031	158.509521484375	707.1578369140625	-488.2165832519531	360.3300170898438	398.6116943359375	-454.5238037109375	46.67857360839844	565.709716796875	-483.2832641601562	56.79424285888672	618.737548828125	-360.6841735839844	79.47549438476562	624.9097900390625	-420.9624328613281	197.1813201904297	758.5975341796875	
197	1.96	-524.7045288085938	1029.141357421875	490.1905517578125	-635.7222290039062	1038.366821289062	540.7517700195312	-571.4971313476562	1066.6318359375	514.144775390625	-689.7101440429688	1295.262817382812	294.4132690429688	-543.9739379882812	1224.922973632812	553.7188720703125	-576.3768920898438	1496.762451171875	511.1264343261719	-681.63818359375	1407.577758789062	329.7149658203125	-454.6565551757812	1319.316650390625	508.6335754394531	-658.64111328125	1475.173217773438	567.9275512695312	-764.9130859375	1468.439697265625	544.9437866210938	-803.1199340820312	1339.346435546875	622.4696044921875	-805.6580200195312	1124.761840820312	642.7769165039062	-718.8408813476562	1112.596435546875	625.0709838867188	-840.2252807617188	873.8418579101562	582.5974731445312	-811.1312866210938	873.7723999023438	672.6903686523438	-816.081298828125	1015.771850585938	659.7989501953125	-801.8521118164062	689.9253540039062	595.9815673828125	-811.7728271484375	801.2484741210938	669.576904296875	-848.1100463867188	793.2888793945312	606.6593017578125	-454.431396484375	1479.253295898438	363.6436157226562	-385.8235778808594	1413.19970703125	344.9531860351562	-335.0882873535156	1124.08349609375	332.253662109375	-419.8812561035156	1116.20556640625	380.1470642089844	-415.3542785644531	898.8201904296875	210.4997863769531	-339.9989013671875	881.6358032226562	257.2562561035156	-330.7784423828125	1052.50830078125	299.8105163574219	-444.4928894042969	711.0700073242188	210.7968444824219	-420.5960388183594	804.4688110351562	183.3531799316406	-355.3870239257812	798.4814453125	233.3587493896484	-530.669189453125	1647.058227539062	440.9234619140625	-706.1213989257812	1726.727661132812	337.0721740722656	-587.4796142578125	1709.05712890625	287.2096252441406	-651.4624633789062	1671.72509765625	501.4654235839844	-796.0037231445312	998.2972412109375	489.9413146972656	-476.4414672851562	976.6129150390625	297.6564025878906	-556.0593872070312	1019.196838378906	247.5163116455078	-786.6409301757812	1036.295043945312	354.8405456542969	-853.5914916992188	513.2824096679688	321.0410766601562	-857.3975830078125	652.73193359375	373.7088623046875	-869.8291625976562	29.48393440246582	370.6512756347656	-874.8665161132812	280.333740234375	340.6225280761719	-894.5482788085938	56.73321533203125	157.0388641357422	-838.2102661132812	53.97731018066406	191.7499237060547	-931.3118896484375	27.14948272705078	274.3286437988281	-790.8692626953125	37.18317413330078	404.6280822753906	-505.2402038574219	472.0250244140625	320.9821166992188	-498.5129089355469	743.6163940429688	264.6745910644531	-378.4525756835938	166.7116394042969	699.0623168945312	-495.0476989746094	361.18212890625	384.5018920898438	-453.4717712402344	49.06442260742188	553.249755859375	-485.4641418457031	59.14913940429688	605.4171142578125	-364.6148681640625	88.12885284423828	617.3577270507812	-436.1569519042969	202.6087036132812	748.2041625976562	
198	1.97	-531.4803466796875	1030.031372070312	485.7639465332031	-643.2454833984375	1039.999755859375	534.4804077148438	-578.6624755859375	1068.104736328125	508.8559265136719	-693.393798828125	1295.8212890625	286.2679443359375	-551.9949951171875	1226.520629882812	548.2772216796875	-583.9525756835938	1498.200439453125	504.3267211914062	-686.0396118164062	1408.246215820312	321.392822265625	-462.0223388671875	1320.841918945312	504.28125	-667.0962524414062	1476.511962890625	559.779052734375	-773.0408325195312	1469.565795898438	534.9256591796875	-812.590087890625	1340.64306640625	612.009765625	-815.6788330078125	1125.979370117188	632.7167358398438	-728.6593017578125	1113.86865234375	617.0245361328125	-849.0535278320312	875.1654663085938	571.2449951171875	-821.9744262695312	874.8455810546875	661.9738159179688	-826.5819702148438	1016.866271972656	649.3378295898438	-811.4492797851562	691.18505859375	584.989501953125	-822.7100830078125	802.3419799804688	658.6220092773438	-857.6712036132812	794.6282348632812	594.8346557617188	-459.5692138671875	1480.442138671875	358.8909912109375	-390.641845703125	1414.36279296875	341.3204650878906	-338.8485107421875	1125.483764648438	329.1570129394531	-424.207763671875	1117.31689453125	376.0025939941406	-417.0349731445312	900.2528076171875	206.1455383300781	-342.277587890625	883.110595703125	253.9157867431641	-334.0799865722656	1053.92431640625	296.7372741699219	-445.8938903808594	712.4605712890625	205.7621459960938	-421.7924499511719	805.931640625	178.7689208984375	-357.2428283691406	799.9617919921875	229.6519775390625	-536.9360961914062	1647.7802734375	435.8782043457031	-709.9476318359375	1728.359008789062	328.7136535644531	-590.3690185546875	1710.59521484375	281.2979125976562	-658.7931518554688	1672.533935546875	494.0380249023438	-802.4548950195312	999.5868530273438	481.3838195800781	-480.0438232421875	976.69091796875	294.49755859375	-558.598876953125	1019.6201171875	242.8628540039062	-791.1619873046875	1036.827880859375	346.2154235839844	-856.1649780273438	512.831787109375	317.1331481933594	-860.849853515625	652.7295532226562	368.3915710449219	-869.685302734375	29.66981315612793	370.48681640625	-875.9298095703125	279.8680114746094	338.9213256835938	-894.5271606445312	55.36705780029297	156.3941345214844	-838.1859130859375	53.31549453735352	191.306884765625	-931.3617553710938	27.10914039611816	274.2630310058594	-790.8031616210938	37.25076293945312	404.5009460449219	-512.029541015625	472.3333435058594	306.6151733398438	-502.1802062988281	744.63427734375	257.603515625	-390.4769287109375	174.1094665527344	689.5941162109375	-502.3199462890625	362.3004455566406	370.068603515625	-454.0278015136719	51.85921859741211	539.5900268554688	-488.6969299316406	61.8159065246582	591.0052490234375	-369.9050598144531	96.62846374511719	608.1156005859375	-451.4741821289062	207.0522918701172	736.851806640625	
199	1.98	-537.9902954101562	1030.983032226562	481.4980163574219	-650.415283203125	1041.523315429688	528.4420776367188	-585.5646362304688	1069.571044921875	503.7457580566406	-696.7720336914062	1296.232421875	278.1913757324219	-559.8465576171875	1228.223999023438	542.9988403320312	-591.456298828125	1499.698608398438	497.4610290527344	-690.15087890625	1408.78857421875	313.0665588378906	-469.27880859375	1322.447387695312	500.0811462402344	-675.5016479492188	1477.89404296875	551.500244140625	-781.0807495117188	1470.66943359375	524.6723022460938	-822.0736694335938	1341.924438476562	601.2279663085938	-825.893798828125	1127.178344726562	622.3440551757812	-738.6787719726562	1115.086181640625	608.9115600585938	-858.0198364257812	876.5384521484375	559.58544921875	-833.1415405273438	875.8991088867188	650.9017944335938	-837.2955932617188	1017.943054199219	638.5811157226562	-821.5215454101562	692.4745483398438	573.5692749023438	-834.0360717773438	803.416259765625	647.2709350585938	-867.5460815429688	796.0516357421875	582.6156005859375	-464.5329895019531	1481.5908203125	354.1963195800781	-395.3292541503906	1415.450805664062	337.8147583007812	-342.5550231933594	1126.7724609375	326.1066284179688	-428.3979797363281	1118.337646484375	371.9457397460938	-418.8485717773438	901.708251953125	201.7784576416016	-344.6742553710938	884.5367431640625	250.4769897460938	-337.3578186035156	1055.24560546875	293.6773071289062	-447.4639282226562	713.904541015625	200.5451812744141	-423.0689086914062	807.45751953125	174.11865234375	-359.2484130859375	801.4420776367188	225.7804718017578	-543.1156616210938	1648.469116210938	430.7102355957031	-713.6285400390625	1729.935913085938	320.3514404296875	-593.1942138671875	1712.108642578125	275.3626098632812	-665.9622192382812	1673.278076171875	486.5113830566406	-808.55615234375	1000.692565917969	473.0279541015625	-483.4788513183594	976.9136352539062	291.6726684570312	-560.8734130859375	1020.11767578125	238.3568115234375	-795.341552734375	1037.256958007812	337.8234252929688	-858.4067993164062	512.3516845703125	313.39013671875	-863.9612426757812	652.7041015625	363.1372375488281	-869.5020141601562	29.89015769958496	370.3013000488281	-876.8010864257812	279.41796875	337.30712890625	-894.49560546875	54.0541877746582	155.7408447265625	-838.1072998046875	52.6829719543457	190.8442077636719	-931.3579711914062	27.09925270080566	274.1887512207031	-790.696533203125	37.31844329833984	404.3566284179688	-518.9373779296875	473.0963439941406	292.1509094238281	-505.7135314941406	745.927734375	250.5892944335938	-402.9953308105469	180.5170745849609	678.7996215820312	-509.9519653320312	363.6764221191406	355.3221130371094	-456.5429992675781	54.86166000366211	525.0277709960938	-493.3425903320312	64.64183807373047	575.8404541015625	-376.686279296875	104.5040512084961	597.3137817382812	-466.6638793945312	210.6186676025391	724.574462890625	
